<svg width="34" height="80" viewBox="0 0 34 80" fill="none" xmlns="http://www.w3.org/2000/svg">
<path d="M1.06996 0.999999C0.352792 14.3175 5.19028 26.8915 13.7111 37.2383C16.6457 40.8016 20.539 44.3427 24.7394 46.4267C26.644 47.3718 30.3927 48.6325 32.1523 47.0204C35.0741 44.3442 29.6658 40.8259 27.6526 39.6643C24.0134 37.5649 16.9276 39.1424 14.8815 42.8907C11.0834 49.8488 11.9905 60.1616 12.3325 67.798C12.4691 70.847 13.2429 73.9501 13.2429 76.961C13.2429 78.1291 14.7203 75.3061 15.1156 74.8703C17.4485 72.298 17.4051 72.1621 15.3497 75.3347C15.0651 75.7742 13.3141 79 13.0088 79C12.7957 79 8.72412 73.5131 8.09284 73.0119" stroke="#75B8FF" stroke-width="0.787402" stroke-linecap="round"/>
</svg>
